PathFileType	4	(X/Y/Z)	 s05c0302.trc
DataRate	CameraRate	NumFrames	NumMarkers	Units	OrigDataRate	OrigDataStartFrame	OrigNumFrames
200	200	4	49	mm	200	751	2000
Frame#	Time	racr			lacr			c7			jug			rlel			rdr			llel			ldr			s2			lic			ric			lasi			rasi			rpsi			lpsi			rgt			lgt			rth1			rth2			rth3			rth4			rlfc			rsh1			rsh2			rsh3			rsh4			rlmal			rmmal			rcal			rtoe			rmt5			lth1			lth2			lth4			lth3			llfc			lmfc			lsh1			lsh2			lsh3			lsh4			llmal			lmmal			lcal			ltoe			lmt5			SBIKE			LBIKE			RBIKE			
		X1	Y1	Z1	X2	Y2	Z2	X3	Y3	Z3	X4	Y4	Z4	X5	Y5	Z5	X6	Y6	Z6	X7	Y7	Z7	X8	Y8	Z8	X9	Y9	Z9	X10	Y10	Z10	X11	Y11	Z11	X12	Y12	Z12	X13	Y13	Z13	X14	Y14	Z14	X15	Y15	Z15	X16	Y16	Z16	X17	Y17	Z17	X18	Y18	Z18	X19	Y19	Z19	X20	Y20	Z20	X21	Y21	Z21	X22	Y22	Z22	X23	Y23	Z23	X24	Y24	Z24	X25	Y25	Z25	X26	Y26	Z26	X27	Y27	Z27	X28	Y28	Z28	X29	Y29	Z29	X30	Y30	Z30	X31	Y31	Z31	X32	Y32	Z32	X33	Y33	Z33	X34	Y34	Z34	X35	Y35	Z35	X36	Y36	Z36	X37	Y37	Z37	X38	Y38	Z38	X39	Y39	Z39	X40	Y40	Z40	X41	Y41	Z41	X42	Y42	Z42	X43	Y43	Z43	X44	Y44	Z44	X45	Y45	Z45	X46	Y46	Z46	X47	Y47	Z47	X48	Y48	Z48	X49	Y49	Z49	
751	3.7550	795.375111	1252.445339	-177.142836	759.252024	1321.373342	-459.833402	773.428212	1364.886790	-316.617668	712.631624	1211.398925	-332.300087	616.491631	1117.727708	17.370042	712.208980	932.775539	-69.642754	567.385040	1113.672552	-573.113692	703.996764	925.453391	-463.899671	189.334925	1236.228515	-252.759355	315.552031	1260.932870	-404.664248	354.372035	1197.512920	-130.309803	352.528118	1192.216065	-385.106350	374.281775	1138.539497	-171.370829	237.026579	1265.986245	-201.744809	229.818780	1288.392265	-287.111101	255.064986	1078.824196	-120.595898	249.976363	1170.100486	-445.426632	277.641148	971.524148	-101.654542	306.132036	886.902683	-98.713025	288.159419	800.534002	-103.536630	342.164786	889.227733	-107.537146	315.332200	654.819756	-126.813669	253.806323	567.309875	-93.702168	247.943653	479.161663	-103.105840	202.625795	406.517294	-104.685087	277.519117	472.086028	-127.825800	168.289337	275.413673	-110.400677	187.884104	297.790298	-188.949813	95.494405	266.790857	-154.976563	365.141471	140.269199	-150.300280	262.266330	155.756577	-84.853935	353.561932	1068.547936	-472.193430	433.549090	1037.725372	-469.120882	454.666703	1062.489399	-449.050006	490.010920	967.082983	-476.019154	576.544602	848.550948	-447.425240	560.724623	834.317989	-337.936717	470.506378	793.796451	-469.113175	407.246323	735.017001	-456.775195	320.908827	714.300214	-456.185336	423.794085	707.942430	-434.978477	218.790730	647.672381	-447.863714	253.340052	647.637100	-373.988291	152.361170	678.698891	-410.713568	265.650766	408.146207	-378.669190	200.881066	486.688272	-454.803256	-164.754660	902.650698	-268.301703	-43.454936	85.386922	-474.677233	-51.712974	80.160738	-77.185254	
752	3.7600	795.015513	1252.285217	-179.930429	758.349009	1319.880326	-463.077933	773.083360	1364.018376	-319.881717	711.346073	1210.841615	-334.832867	617.513729	1118.201117	16.291218	712.007709	932.401844	-69.510233	565.221318	1112.130285	-574.219845	703.896516	925.746021	-464.127924	190.174703	1236.481292	-248.343794	313.547193	1262.306956	-401.712297	357.557594	1196.699096	-128.728818	351.481129	1193.802296	-383.414507	374.208331	1137.271357	-174.173798	238.697103	1265.893748	-197.351861	230.008641	1288.513301	-282.127200	256.980081	1079.068085	-118.220797	248.767061	1172.092736	-442.304716	276.670785	972.479013	-99.247710	303.549049	887.349793	-95.954320	283.893889	801.370705	-100.084954	339.685872	888.888955	-104.458155	308.309570	654.526593	-124.042361	247.056435	567.359281	-91.021240	240.665152	479.207478	-100.417770	195.210098	406.657142	-102.058813	270.318624	472.213590	-124.982113	161.255212	275.066244	-108.437860	180.487849	297.854508	-186.700452	88.300686	268.242011	-152.331677	354.852005	135.367426	-151.472100	253.223867	152.723080	-84.639891	353.546433	1072.378583	-470.490619	434.078824	1043.221326	-468.007205	454.677866	1068.181233	-447.705123	492.033692	973.832849	-475.933725	581.315701	857.045814	-448.456221	566.750220	841.476585	-338.700461	476.646240	801.134737	-469.572097	414.098671	741.681550	-457.067688	327.992988	719.921173	-456.260086	431.101499	714.578297	-435.727548	225.994256	651.099663	-447.051400	260.715343	651.788919	-372.712846	159.185972	680.896746	-409.707232	277.392227	412.721501	-378.846171	211.022536	490.008182	-454.513777	-164.384480	903.822849	-265.103466	-43.470735	85.429109	-474.660392	-51.699557	80.171653	-77.181698	
753	3.7650	794.745203	1252.017825	-182.690783	757.608493	1318.276318	-466.176268	772.643367	1363.135652	-323.047428	710.049748	1210.207928	-337.134856	618.283202	1118.810435	15.087722	712.289336	932.071603	-69.546545	562.943479	1110.288601	-574.654329	703.976239	926.046464	-464.222207	191.256587	1237.000647	-243.926006	311.530511	1263.802105	-398.447316	360.507838	1196.264586	-127.199286	350.419513	1195.548359	-381.664507	376.162588	1137.190227	-173.324801	240.170553	1266.031419	-193.986182	230.047255	1289.160401	-277.576816	258.953687	1079.559938	-116.124963	247.454243	1174.142006	-439.241690	276.105649	974.007957	-97.050679	301.440415	888.311460	-92.940955	280.199120	802.760185	-97.203308	337.584508	889.241810	-101.578218	302.004646	654.821218	-121.450703	240.660289	567.981224	-88.429021	234.021362	479.873349	-97.842449	188.350151	407.437618	-99.352039	263.670562	472.704493	-122.350083	154.595679	275.609608	-106.211067	173.733095	298.078510	-184.329645	81.304020	270.428719	-149.242734	344.476728	131.240897	-152.885685	244.181621	150.398355	-84.472077	353.225213	1076.202970	-468.439347	434.422343	1048.530931	-466.514550	454.647507	1073.603799	-445.944477	493.587252	980.407082	-475.394337	585.585408	865.353504	-449.236136	572.270318	848.976905	-339.198254	482.221937	808.116979	-469.821365	420.516716	747.798147	-457.185983	334.713700	724.967767	-455.990829	438.017945	720.760211	-436.250403	233.074926	653.801289	-446.305104	268.246444	654.919420	-372.291662	165.962786	682.215501	-408.736647	288.991312	416.172459	-378.691214	221.111376	492.657665	-454.348440	-164.698156	902.743024	-268.118997	-43.457350	85.447661	-474.646513	-51.694485	80.164366	-77.160722	
754	3.7700	794.325385	1251.894250	-185.374646	757.075820	1316.467319	-469.307441	772.270812	1362.136566	-326.141736	708.799041	1209.602226	-339.319460	618.788006	1119.279930	13.817755	712.482070	931.807898	-69.542299	560.713768	1108.455711	-575.094017	704.048194	926.463097	-464.123303	192.237026	1237.518099	-239.802716	309.619368	1265.501124	-395.727382	363.234043	1196.217780	-125.741688	349.299691	1197.453480	-379.767016	377.923685	1137.396391	-172.373852	242.708401	1266.193896	-190.647730	230.163986	1290.171373	-273.528496	261.215386	1080.060133	-114.052260	246.136291	1176.331353	-436.219678	275.974329	975.855221	-95.126204	299.929339	889.791220	-90.054556	277.184820	804.506402	-94.991494	336.489673	890.325862	-98.479619	296.643394	655.681485	-119.252128	235.122003	569.120241	-86.041487	227.895416	481.047071	-95.658933	182.049939	408.834060	-96.739170	257.890922	474.008817	-119.733737	148.216654	276.595482	-103.869109	166.601686	299.552598	-181.824459	74.502037	273.431264	-145.756385	333.874034	127.446821	-154.469621	235.267420	148.675046	-84.244883	352.571896	1079.979851	-466.108629	434.259322	1053.761074	-465.057526	454.409149	1079.019304	-444.060584	494.554372	986.711941	-474.579643	588.902353	873.537212	-450.801434	577.161670	856.672559	-339.346597	487.193738	814.469337	-469.868776	426.408511	753.219930	-457.139932	340.951887	729.217336	-455.515671	444.379837	726.435550	-436.530579	239.986464	655.684607	-445.432588	275.781110	657.130003	-371.583096	172.566657	682.860713	-407.746568	300.625541	419.011613	-378.703052	231.156248	494.638543	-454.219680	-164.479492	903.812731	-265.020106	-43.475090	85.459213	-474.647650	-51.710456	80.182242	-77.124975	
